<svg width="15" height="18" fill="none" xmlns="http://www.w3.org/2000/svg"><path d="M15 8.182V6.076a.59.59 0 00-.586-.591.611.611 0 00-.5.278H3.788L1.106.611a.587.587 0 00-1.04.545l2.63 5.053v1.973a6.183 6.183 0 003.315 5.476l-1.83 2.738a.586.586 0 00.974.651l.814-1.218 2.312.713v.159a.586.586 0 001.172 0v-.159l2.312-.713.814 1.218a.585.585 0 10.974-.65l-1.837-2.75A6.184 6.184 0 0015 8.181zM3.867 6.935h9.961v.508h-9.96v-.508zm4.414 8.381l-1.632-.504.47-.704c.375.11.763.185 1.162.222v.986zm1.172 0v-.988a6.071 6.071 0 001.157-.228l.476.712-1.633.504zm-.595-2.131h-.005a4.987 4.987 0 01-4.966-4.57h9.922c-.223 2.578-2.359 4.57-4.951 4.57z" fill="#fff"/></svg>